HIERARCHY
ROOT Hips
{
	OFFSET -3.958830 18.904000 13.208200
	CHANNELS 6 Xposition Yposition Zposition Zrotation Yrotation Xrotation 
	JOINT LHipJoint
	{
		OFFSET 0.000000 0.000000 0.000000
		CHANNELS 3 Zrotation Yrotation Xrotation
		JOINT LeftUpLeg
		{
			OFFSET 1.800000 -1.400000 0.085000
			CHANNELS 3 Zrotation Yrotation Xrotation
			JOINT LeftLeg
			{
				OFFSET 2.215000 -6.000000 0.000000
				CHANNELS 3 Zrotation Yrotation Xrotation
				JOINT LeftFoot
				{
					OFFSET 2.500000 -6.900000 0.000000
					CHANNELS 3 Zrotation Yrotation Xrotation
					JOINT LeftToeBase
					{
						OFFSET 0.200000 -0.500000 1.950000
						CHANNELS 3 Zrotation Yrotation Xrotation
						End Site
						{
							OFFSET 0.000000 0.000000 0.000000
						}
					}
				}
			}
		}
	}
	JOINT RHipJoint
	{
		OFFSET 0.000000 0.000000 0.000000
		CHANNELS 3 Zrotation Yrotation Xrotation
		JOINT RightUpLeg
		{
			OFFSET -1.800000 -1.400000 0.085000
			CHANNELS 3 Zrotation Yrotation Xrotation
			JOINT RightLeg
			{
				OFFSET -2.215000 -6.000000 0.000000
				CHANNELS 3 Zrotation Yrotation Xrotation
				JOINT RightFoot
				{
					OFFSET -2.500000 -6.900000 0.000000
					CHANNELS 3 Zrotation Yrotation Xrotation
					JOINT RightToeBase
					{
						OFFSET -0.200000 -0.500000 1.950000
						CHANNELS 3 Zrotation Yrotation Xrotation
						End Site
						{
							OFFSET 0.000000 0.000000 0.000000
						}
					}
				}
			}
		}
	}
	JOINT LowerBack
	{
		OFFSET 0.000000 0.000000 0.000000
		CHANNELS 3 Zrotation Yrotation Xrotation
		JOINT Spine
		{
			OFFSET -0.087000 1.940000 -0.288900
			CHANNELS 3 Zrotation Yrotation Xrotation
			JOINT Spine1
			{
				OFFSET 0.000000 1.950000 0.060000
				CHANNELS 3 Zrotation Yrotation Xrotation
				JOINT Neck
				{
					OFFSET 0.000000 0.000000 0.000000
					CHANNELS 3 Zrotation Yrotation Xrotation
					JOINT Neck1
					{
						OFFSET 0.000000 1.600000 0.340000
						CHANNELS 3 Zrotation Yrotation Xrotation
						JOINT Head
						{
							OFFSET 0.000000 1.667000 -0.240000
							CHANNELS 3 Zrotation Yrotation Xrotation
							End Site
							{
								OFFSET 0.000000 0.000000 0.000000
							}
						}
					}
				}
				JOINT LeftShoulder
				{
					OFFSET 0.000000 0.000000 0.000000
					CHANNELS 3 Zrotation Yrotation Xrotation
					JOINT LeftArm
					{
						OFFSET 2.700000 1.550000 -0.730000
						CHANNELS 3 Zrotation Yrotation Xrotation
						JOINT LeftForeArm
						{
							OFFSET 5.450000 0.000000 0.000000
							CHANNELS 3 Zrotation Yrotation Xrotation
							JOINT LeftHand
							{
								OFFSET 3.450000 0.000000 0.000000
								CHANNELS 3 Zrotation Yrotation Xrotation
								JOINT LeftHandIndex1
								{
									OFFSET 0.750000 0.000000 0.000000
									CHANNELS 3 Zrotation Yrotation Xrotation
									End Site
									{
										OFFSET 0.000000 0.000000 0.000000
									}
								}
							}
						}
					}
				}
				JOINT RightShoulder
				{
					OFFSET 0.000000 0.000000 0.000000
					CHANNELS 3 Zrotation Yrotation Xrotation
					JOINT RightArm
					{
						OFFSET -2.700000 1.550000 -0.730000
						CHANNELS 3 Zrotation Yrotation Xrotation
						JOINT RightForeArm
						{
							OFFSET -5.450000 0.000000 0.000000
							CHANNELS 3 Zrotation Yrotation Xrotation
							JOINT RightHand
							{
								OFFSET -3.450000 0.000000 0.000000
								CHANNELS 3 Zrotation Yrotation Xrotation
								JOINT RightHandIndex1
								{
									OFFSET -0.750000 0.000000 0.000000
									CHANNELS 3 Zrotation Yrotation Xrotation
									End Site
									{
										OFFSET 0.000000 0.000000 0.000000
									}
								}
							}
						}
					}
				}
			}
		}
	}
}
MOTION
Frames: 12
Frame Time: 0.016667
-0.627800 17.270990 -3.710360 -3.024837 4.133360 3.256587 -15.369718 12.747296 2.759134 -4.616167 -2.190848 -1.554161 -7.980706 10.343489 35.134417 -0.566931 8.401706 1.908331 0.188160 -0.074540 -0.228950 18.413352 -8.483382 4.661638 -3.247906 10.132560 -42.082628 30.730018 -15.404759 30.927386 -1.121752 -7.057668 1.904607 0.270900 1.038510 0.457000 -3.565178 -3.644765 -8.262686 10.986435 -4.975626 16.006443 0.271303 -3.505988 10.670017 -1.382315 -3.517854 -9.466303 -8.051671 -0.951897 26.491372 -1.314050 -1.358910 -20.347940 -22.580232 -17.869276 6.286295 -51.746632 -31.364254 16.058589 174.026240 -64.297825 177.789138 -4.038649 2.741347 1.023130 0.477310 -0.081890 0.429030 25.315488 16.836530 5.471705 45.661604 7.863812 -8.197263 -11.548403 26.687435 -3.090522 1.388179 -1.049356 -0.758540 0.875880 0.473370 -0.111060 
-0.623600 17.091070 -3.622360 -2.447639 3.678750 2.159446 -15.403449 12.829778 2.794005 -5.892697 -0.748464 1.683814 -6.352540 9.729070 33.980788 -0.548541 8.204041 1.990978 0.185150 -0.075040 -0.217080 18.370165 -8.472065 4.663255 -2.764609 10.529529 -40.070078 33.475035 -13.262722 24.864793 -0.995185 -6.252907 2.177085 0.255720 1.002920 0.440110 -3.462286 -3.698173 -8.323107 10.078838 -4.706162 16.846615 0.426690 -3.369935 11.746750 -1.272447 -3.176918 -10.098824 -7.609297 -1.130651 27.306457 -1.149340 -1.113620 -21.294250 -23.208331 -19.814813 7.272663 -49.276410 -29.722228 15.456837 173.844875 -58.983293 177.703942 -4.039190 2.733061 1.045550 0.445010 -0.059130 0.420440 25.794151 18.714991 6.137773 44.555404 7.954883 -10.286575 -13.633254 32.530416 -4.306795 1.318660 -1.049750 -0.755440 0.868200 0.460280 -0.118740 
-0.627720 16.934370 -3.518750 -1.608508 4.024718 1.029160 -15.460758 12.938631 2.860829 -6.200666 0.778894 5.663795 -5.434929 9.276043 31.409880 -0.460410 7.940877 2.100790 0.178370 -0.058750 -0.207550 18.302937 -8.427898 4.653896 -2.780328 10.700045 -38.386851 34.899519 -12.266063 22.216211 -0.973289 -5.962235 2.283250 0.221600 0.947330 0.431770 -3.290099 -3.889545 -8.416931 8.629507 -4.663682 17.440051 0.686611 -3.605217 12.870924 -1.041737 -2.936345 -11.069950 -7.512736 -0.700845 28.769470 -1.239420 -0.421260 -21.717110 -24.404275 -22.131791 8.660279 -46.211511 -27.022928 13.088190 174.056872 -55.390437 176.292250 -4.034426 2.733038 1.035680 0.404920 -0.014510 0.414410 26.655476 21.081945 7.083767 43.555883 7.868954 -12.230893 -15.176222 36.903767 -5.537802 1.311736 -1.057001 -0.709220 0.828730 0.423110 -0.102200 
-0.616570 16.833060 -3.415450 -1.603274 4.456103 -0.029716 -15.471905 12.974795 2.884650 -5.272128 2.103534 9.340156 -5.284113 9.057748 27.980293 -0.470472 7.758820 2.164248 0.162020 -0.087810 -0.185030 18.288893 -8.407790 4.667079 -2.699893 11.380696 -36.900678 35.734266 -12.160408 21.973314 -1.019767 -6.003177 2.263009 0.188880 0.906310 0.447270 -3.258591 -3.885817 -8.492622 8.713366 -4.910397 17.731012 -0.022491 -3.980307 14.616528 -0.245473 -2.271741 -12.193737 -6.600935 -0.052658 30.523431 -2.088210 0.679360 -22.478170 -24.956878 -24.932838 10.386687 -44.241431 -24.112399 11.087139 176.504975 -52.493244 169.990003 -4.076849 2.701050 1.079990 0.382080 0.023800 0.384130 25.649935 23.678041 7.852189 44.342209 8.907217 -14.430457 -17.816939 41.356628 -7.569106 1.251813 -1.012374 -0.703350 0.808700 0.435890 -0.126650 
-0.593620 16.790820 -3.321100 -1.889383 5.240780 -0.651574 -15.421526 12.960856 2.870362 -4.050321 2.787118 11.459753 -5.353939 9.086914 26.208201 -0.400523 7.684101 2.189814 0.168800 -0.072750 -0.169480 18.331020 -8.462227 4.689997 -2.611244 12.056476 -36.104678 35.486555 -12.253256 22.817676 -1.065036 -6.073592 2.235823 0.161200 0.860970 0.466280 -3.397662 -3.678328 -8.533287 10.128243 -5.503253 17.872906 -1.315217 -4.518874 15.540122 0.661175 -2.157807 -13.110816 -6.414181 0.710590 31.699848 -2.554180 1.223640 -22.812600 -25.585944 -26.726893 11.772894 -42.920460 -20.522916 8.260691 -179.314337 -52.448247 160.050136 -4.082198 2.718601 1.079630 0.351970 0.069370 0.379890 24.477427 25.737753 8.406661 45.029282 10.271311 -16.148895 -20.845053 44.970715 -9.896642 1.237204 -0.980074 -0.653630 0.771100 0.414460 -0.113890 
-0.574820 16.809340 -3.226940 -1.906948 6.463995 -0.751473 -15.413534 13.028673 2.842489 -3.440489 2.986140 11.957718 -4.240183 8.837422 26.501440 -0.367933 7.657107 2.216617 0.120250 -0.100430 -0.198200 18.318461 -8.527202 4.690722 -2.948594 12.116457 -35.489433 35.202676 -12.204104 22.925132 -1.053878 -6.062670 2.270892 0.131390 0.870370 0.451180 -3.404579 -3.619280 -8.543090 10.557147 -6.022991 17.734814 -1.425396 -5.240807 15.536917 1.448396 -2.017654 -13.533187 -6.028284 1.376347 32.540653 -3.899590 1.710580 -22.582880 -26.150022 -27.162749 12.618993 -43.386318 -17.068854 5.675682 -173.417464 -54.932775 148.532094 -4.112870 2.653270 1.070880 0.361690 0.081050 0.379150 23.577687 26.627028 8.379253 44.632044 12.069285 -16.635004 -22.106172 46.900023 -11.093423 1.231737 -0.903243 -0.657970 0.794690 0.418940 -0.100120 
-0.562750 16.894180 -3.135850 -2.467521 6.861900 -0.374240 -15.354019 13.103019 2.755386 -2.347668 2.728349 11.157006 -3.539258 8.743620 27.286245 -0.333345 7.613964 2.256845 0.088150 -0.137930 -0.201280 18.346316 -8.682545 4.679806 -2.165099 12.206128 -34.656909 33.949378 -11.846879 22.817698 -1.002166 -5.883264 2.363889 0.089740 0.872320 0.435460 -3.539385 -3.423143 -8.510749 12.066317 -6.573281 17.515432 -2.060537 -5.717183 14.407487 2.217743 -2.045159 -13.605642 -5.836639 2.284153 33.102006 -4.888600 2.308070 -21.713410 -27.052894 -26.671781 12.818696 -43.763915 -13.638837 2.676946 -162.649219 -59.256993 132.108844 -4.111283 2.598657 1.059180 0.361430 0.083330 0.388260 22.947183 26.574680 8.251675 44.760434 13.248309 -16.635312 -21.201994 48.884794 -11.335078 1.259369 -0.865770 -0.657230 0.792430 0.397430 -0.090010 
-0.562150 17.035250 -3.036810 -2.720540 6.291401 0.049295 -15.329609 13.261225 2.716143 -1.607712 2.520412 9.842240 -2.776344 8.631673 28.297415 -0.297238 7.537002 2.284326 0.045210 -0.182440 -0.231760 18.324996 -8.851356 4.639415 -1.070357 12.177522 -33.369686 31.383268 -11.442431 23.503866 -0.930445 -5.652958 2.465173 0.035070 0.855210 0.415600 -3.544842 -3.387085 -8.508839 12.661888 -6.427236 17.745365 -1.782992 -5.486563 12.748375 2.625993 -2.600932 -13.730373 -6.761496 2.917712 34.163453 -5.069060 2.062990 -21.360310 -28.204938 -25.871711 12.560348 -44.437046 -10.598770 -0.834088 -144.184042 -64.908553 109.726240 -4.118360 2.459889 1.054270 0.334050 0.088320 0.381560 23.345617 26.828150 8.589438 44.018941 13.324337 -16.952358 -19.909229 51.187227 -11.365570 1.296772 -0.832293 -0.641420 0.776480 0.397410 -0.073870 
-0.577170 17.199910 -2.940470 -2.824134 5.428130 0.908768 -15.333758 13.448724 2.618470 -0.567169 2.043925 7.244241 -2.006075 8.632770 30.388324 -0.298782 7.545531 2.275424 0.036740 -0.209880 -0.232140 18.272674 -9.019900 4.614633 -0.073371 12.096474 -32.348050 28.685949 -10.969481 24.224697 -0.867353 -5.421393 2.555564 0.003030 0.843820 0.409640 -3.456257 -3.374180 -8.482569 12.269885 -5.616479 17.682001 -0.574562 -4.718786 10.899377 2.759409 -2.818873 -13.558671 -7.020963 3.277426 34.923463 -4.743130 1.716740 -21.133870 -28.510596 -24.422081 11.699227 -46.312196 -9.299696 -2.437248 -110.406344 -69.388080 73.629647 -4.285926 2.229487 1.069570 0.310390 0.094070 0.385400 23.522087 26.377715 8.676127 43.305097 13.208896 -17.013449 -19.044666 52.875835 -11.340722 1.321842 -0.819531 -0.636000 0.763960 0.387320 -0.070660 
-0.586990 17.373020 -2.851280 -3.058744 4.563379 1.976369 -15.303903 13.554309 2.451325 0.390214 1.391098 3.689930 -0.333748 8.316101 33.513368 -0.349107 7.607654 2.204730 0.046320 -0.219200 -0.222300 18.262696 -9.230323 4.603873 0.349814 11.997869 -31.980309 26.255622 -10.758150 25.458662 -0.827862 -5.353111 2.546703 -0.000880 0.827470 0.447640 -3.474560 -3.139775 -8.377044 12.338132 -4.656210 16.825515 0.319381 -3.883655 10.275485 2.853022 -2.708075 -13.342344 -6.528823 3.288961 34.752338 -5.128100 1.539800 -20.422250 -27.504888 -23.506812 10.836449 -49.013950 -9.824096 -2.985647 -72.852000 -67.460345 39.832605 -3.973743 2.825430 1.063270 0.315600 0.092390 0.369520 22.377615 25.854389 8.568613 43.647839 13.624045 -17.059716 -18.948511 54.160712 -11.728851 1.312213 -0.844849 -0.613000 0.714260 0.400620 -0.079010 
-0.610100 17.549080 -2.770780 -3.151185 4.405016 2.799996 -15.279790 13.708964 2.281116 1.748402 0.754194 -0.295681 2.180594 7.759013 37.350910 -0.369768 7.791036 2.118368 0.026290 -0.247740 -0.231450 18.235744 -9.487266 4.537891 0.588628 11.570232 -31.217330 23.227868 -10.266872 26.379702 -0.751506 -5.170098 2.613729 -0.010860 0.856970 0.452560 -3.469807 -2.934391 -8.252340 11.903445 -3.846712 16.265439 1.441002 -3.228610 9.771160 2.701754 -2.705871 -13.316440 -6.249820 3.408737 34.628687 -5.002260 1.350490 -19.582050 -25.257601 -22.907044 10.037050 -53.134488 -9.734036 -5.209608 -52.830753 -58.917077 21.480832 -3.910254 2.793574 1.051710 0.336290 0.079200 0.367990 20.521142 25.630747 8.661510 44.586267 13.934080 -17.411595 -18.367587 55.339941 -12.057167 1.303367 -0.834035 -0.620910 0.730350 0.416090 -0.074340 
-0.618030 17.692080 -2.679160 -2.862156 5.283451 3.934561 -15.260075 13.805275 2.207393 2.309198 -0.255823 -5.085181 5.767131 6.621178 42.825503 -0.292870 8.183824 1.926586 0.012880 -0.249710 -0.259090 18.213425 -9.723374 4.394631 -0.124869 10.588000 -30.912266 20.756437 -10.108090 27.364053 -0.688165 -5.128295 2.616275 -0.023930 0.859140 0.479710 -3.481314 -2.762873 -8.119988 11.373919 -3.601705 15.402378 1.872513 -3.070470 8.353940 2.636294 -2.402370 -12.801847 -5.441469 3.460982 33.611381 -5.184460 1.523990 -18.239170 -23.972514 -21.312512 9.097097 -56.130162 -9.248694 -5.831072 -39.874619 -49.856540 11.239788 -3.929623 2.780181 0.995130 0.363020 0.060700 0.359110 19.321895 24.012285 8.185873 45.684561 13.967682 -16.970193 -15.511619 57.166052 -11.143973 1.326568 -0.891620 -0.580390 0.673090 0.424450 -0.056800 
